<svg xmlns="http://www.w3.org/2000/svg" viewBox="0 0 360 80">
<svg x="6" y="10" width="60" height="60" viewBox="0 0 64 64">
<circle cx="32" cy="37" r="22" fill="#ED7A33"/>
<path d="M32 15a22 22 0 0 1 0 44 22 22 0 0 0 0-44Z" fill="#B5530F" opacity="0.18"/>
<g stroke="#B5530F" stroke-width="1.3" opacity="0.45" stroke-linecap="round">
<line x1="32" y1="37" x2="32" y2="16"/><line x1="32" y1="37" x2="49" y2="27"/><line x1="32" y1="37" x2="50" y2="44"/><line x1="32" y1="37" x2="38" y2="58"/><line x1="32" y1="37" x2="20" y2="56"/><line x1="32" y1="37" x2="15" y2="44"/><line x1="32" y1="37" x2="16" y2="27"/></g>
<ellipse cx="24" cy="29" rx="6" ry="4" fill="#fff" opacity="0.32"/>
<path d="M32 16C30 8 38 4 45 6c0 8-6 12-13 10Z" fill="#5E8A78"/>
</svg>
<text x="80" y="52" font-family="Georgia, 'DejaVu Serif', serif" font-size="40" font-weight="700" fill="#23314B">Мандаринка</text>
</svg>